<svg width="32" height="32" viewBox="0 0 32 32" fill="none" xmlns="http://www.w3.org/2000/svg">
<rect width="32" height="32" rx="4" fill="#1F2937"/>
<g clip-path="url(#clip0_140_1004)">
<path d="M16.0003 20C14.9395 20 13.922 19.5785 13.1719 18.8284C12.4218 18.0782 12.0003 17.0608 12.0003 16C12.0003 14.9391 12.4218 13.9217 13.1719 13.1715C13.922 12.4214 14.9395 12 16.0003 12C17.0612 12 18.0786 12.4214 18.8288 13.1715C19.5789 13.9217 20.0003 14.9391 20.0003 16C20.0003 17.0608 19.5789 18.0782 18.8288 18.8284C18.0786 19.5785 17.0612 20 16.0003 20ZM15.3337 8.66663H16.667V10.6666H15.3337V8.66663ZM15.3337 21.3333H16.667V23.3333H15.3337V21.3333ZM10.3437 11.286L11.2863 10.3433L12.7003 11.7573L11.7577 12.7L10.3437 11.2866V11.286ZM19.3003 20.2426L20.243 19.3L21.657 20.714L20.7143 21.6566L19.3003 20.2426ZM20.7143 10.3426L21.657 11.286L20.243 12.7L19.3003 11.7573L20.7143 10.3433V10.3426ZM11.7577 19.3L12.7003 20.2426L11.2863 21.6566L10.3437 20.714L11.7577 19.3ZM23.3337 15.3333V16.6666H21.3337V15.3333H23.3337ZM10.667 15.3333V16.6666H8.66699V15.3333H10.667Z" fill="white"/>
</g>
<defs>
<clipPath id="clip0_140_1004">
<rect width="16" height="16" fill="white" transform="translate(8 8)"/>
</clipPath>
</defs>
</svg>
