<svg width="35" height="40" viewBox="0 0 35 40" fill="none" xmlns="http://www.w3.org/2000/svg">
<path d="M32.9166 14.1155C31.2588 13.8569 29.3768 15.3032 28.4479 17.8297C27.8376 19.4887 28.0801 21.5529 26.8434 22.1063C26.371 22.318 26.0222 22.0894 25.7668 21.6942C25.4242 21.0038 25.1541 19.8672 25.004 18.2165L24.4032 4.21144C24.3666 3.13882 23.5561 2.30804 22.1506 2.343C20.7451 2.37797 19.9258 3.29115 19.9613 4.36406L20.5473 17.0514C20.7273 19.8398 19.6175 19.6218 19.0515 16.5607L19.0512 16.5596L16.0386 2.30702C15.8088 1.2045 14.736 0.540653 13.4891 0.824143C12.2422 1.10763 11.5509 2.08658 11.7783 3.1886L14.9175 17.7719C15.5425 20.7183 14.2092 19.9023 13.4198 17.858L8.63238 6.6623C8.16754 5.61009 6.93497 5.12708 5.75365 5.65528C4.57261 6.18454 4.10019 7.40507 4.56502 8.45728L9.02057 18.6676C10.7455 22.5593 10.2151 23.9069 7.66369 19.8628L4.22028 13.8549C3.66314 12.8918 2.46779 12.5219 1.27974 13.2268C0.0916802 13.9316 -0.185181 15.1135 0.370878 16.0769L3.67155 21.7067C5.54269 25.8951 6.0054 27.6219 6.81262 30.6346C7.61985 33.6472 11.5056 42.6068 22.104 39.7669C32.7023 36.9271 31.9974 25.5773 31.9157 24.8687C31.9157 24.8687 31.6221 23.2449 32.3325 21.4614C33.3428 18.9257 34.108 17.3553 34.5746 16.4136C34.8116 15.9371 34.7545 14.4018 32.9166 14.1155Z" fill="#B68143"/>
</svg>
