<svg width="21" height="18" viewBox="0 0 21 18" fill="none" xmlns="http://www.w3.org/2000/svg">
<path d="M20.6618 2.65605C19.8984 2.99374 19.0888 3.21552 18.2598 3.31405C19.1336 2.79148 19.7875 1.96906 20.0998 1.00005C19.2798 1.48805 18.3808 1.83005 17.4438 2.01505C16.8144 1.34163 15.9802 0.895012 15.0708 0.744633C14.1614 0.594255 13.2277 0.74854 12.4151 1.1835C11.6024 1.61846 10.9562 2.30973 10.5769 3.14984C10.1976 3.98995 10.1066 4.93183 10.3178 5.82905C8.65492 5.7457 7.02814 5.31357 5.5431 4.56071C4.05805 3.80785 2.74794 2.7511 1.69781 1.45905C1.3261 2.0975 1.13076 2.82328 1.13181 3.56205C1.13181 5.01205 1.86981 6.29305 2.99181 7.04305C2.32782 7.02215 1.67844 6.84283 1.09781 6.52005V6.57205C1.09801 7.53775 1.43218 8.47366 2.04366 9.22111C2.65513 9.96855 3.50629 10.4815 4.45281 10.673C3.83642 10.8401 3.19012 10.8647 2.56281 10.745C2.82968 11.5763 3.34982 12.3032 4.0504 12.8242C4.75099 13.3451 5.59694 13.6338 6.46981 13.65C5.60229 14.3314 4.60899 14.835 3.54669 15.1322C2.48439 15.4294 1.37394 15.5143 0.278809 15.382C2.19051 16.6115 4.4159 17.2642 6.68881 17.262C14.3818 17.262 18.5888 10.889 18.5888 5.36205C18.5888 5.18205 18.5838 5.00005 18.5758 4.82205C19.3947 4.23022 20.1014 3.49707 20.6628 2.65705L20.6618 2.65605Z" fill="#E5E7EB"/>
</svg>
